<?xml version="1.0" encoding="utf-8"?>
<!-- Generator: Adobe Illustrator 29.5.0, SVG Export Plug-In . SVG Version: 9.03 Build 0)  -->
<svg version="1.0" id="Vrstva_1" xmlns="http://www.w3.org/2000/svg" xmlns:xlink="http://www.w3.org/1999/xlink" x="0px" y="0px"
	 viewBox="0 0 430 428" style="enable-background:new 0 0 430 428;" xml:space="preserve">
<g transform="translate(0.000000,428.000000) scale(0.100000,-0.100000)">
	<path d="M2001.38,4259.99c-2-3-51-10-109-16c-57-5-108-14-114-20c-5-5-33-9-61-9c-29,0-56-4-59-10c-3-5-21-10-38-10
		c-18-1-43-7-57-15s-37-14-52-15c-15,0-30-4-33-10c-3-5-15-10-25-10s-33-8-52-17c-60-30-68-33-81-33c-8,0-88-37-178-83
		c-472-239-841-661-1011-1157c-87-255-118-438-118-707c0-349,65-631,215-939c258-526,732-926,1301-1099c233-71,398-95,649-95
		c259,0,448,31,685,112c432,148,813,446,1073,838c171,257,283,550,333,870c23,149,23,479,0,620c-77,459-264,829-590,1168
		c-89,93-292,254-401,318c-28,16-63,37-80,47c-54,31-209,104-250,117c-54,17-116,40-137,51c-10,5-25,9-33,9c-9,0-44,10-78,21
		c-34,12-89,25-122,30s-94,13-135,19s-100,15-131,20C2255.38,4264.99,2010.38,4268.99,2001.38,4259.99z M2743.38,4137.99
		c133-38,162-56,259-161c170-184,226-263,401-562c136-232,181-312,177-317c-6-6-51,65-107,167c-85,155-249,370-395,515
		c-70,71-237,208-395,324c-47,35-87,65-90,68C2586.38,4179.99,2646.38,4165.99,2743.38,4137.99z M1318.38,3947.99
		c374-87,779-295,1156-594c172-137,397-401,474-558c36-72,70-197,62-230c-2-9-22,21-46,68c-72,141-144,250-257,386
		c-213,258-384,407-624,544c-262,150-518,230-901,281c-169,22-192,27-187,41c2,5,37,29,78,53
		C1157.38,3987.99,1144.38,3987.99,1318.38,3947.99z M994.38,3840.99c24-8,103-22,174-31c178-23,397-69,524-111
		c223-73,528-246,698-396c122-106,344-361,434-498c76-115,192-350,179-364c-77-94-583-180-799-137c-82,17-129,14-142-8
		c-11-17-18-11-72,57c-78,98-164,182-312,306c-181,151-232,186-269,186c-75,0-220-132-333-302c-133-202-232-433-277-643
		c-64-307-53-571,39-930c50-194,111-341,203-485c53-83,2-32-60,60c-116,172-214,416-265,655c-24,115-27,151-27,320
		c0,161,3,206,22,295c64,293,138,441,446,890c95,138,124,239,74,260c-13,5-81,34-151,65c-159,69-206,80-437,100
		c-180,15-285,12-346-12c-15-6-14,1,10,43c120,206,251,370,421,524c74,68,204,170,216,170
		C947.38,3854.99,969.38,3848.99,994.38,3840.99z M4027.38,3074.99c94-185,162-384,196-578c11-61,10-66-20-130
		c-57-121-130-226-264-375c-165-186-358-328-630-468c-240-123-460-195-746-245c-174-30-332-35-512-15c-94,11-137,12-162,4l-35-11
		l24,37c30,44,44,107,45,187c0,88,16,161,48,224c16,30,59,112,95,182c74,140,83,187,48,236c-10,15-23,44-29,65c-10,35-9,38,6,32
		c45-18,199-37,307-37c205-1,415,40,537,104c68,36,98,66,107,108c5,27,14,35,64,55c83,34,186,106,282,197c86,81,202,220,245,293
		c13,22,39,57,58,78c71,81,126,184,167,312c5,16,16,5,61-65C3949.38,3217.99,3998.38,3132.99,4027.38,3074.99z M738.38,3084.99
		c136-14,194-29,315-85c52-24,112-50,133-59c20-8,37-21,37-28c0-31-74-162-157-278c-152-213-262-405-320-559c-67-178-111-457-99-631
		c25-388,176-779,402-1046l58-69l-42,25c-317,188-619,513-791,853c-90,178-181,445-181,533c0,136,59,435,121,610
		c48,137,153,382,237,556c44,89,83,171,86,181c5,15,13,17,48,13C609.38,3097.99,678.38,3090.99,738.38,3084.99z M2973.38,2352.99
		c-36-30-135-73-211-92c-90-22-278-46-363-46c-83,0-258,25-287,41c-39,21-4,27,76,13c206-34,576,10,748,89
		C2995.38,2384.99,3010.38,2382.99,2973.38,2352.99z M2047.38,2126.99c-15-67-52-170-119-327c-90-211-98-233-130-388
		c-28-134-25-167,15-167c19,0,19,0,0-32c-25-41-25-64,1-157c39-146,62-207,128-351c37-80,73-157,79-172c24-58,45-63,283-66
		c187-3,236,0,346,18c392,67,948,343,1281,638c45,40,82,69,82,64c0-17-204-217-300-294c-296-238-637-407-990-493
		c-125-29-286-55-353-55c-60,0-101-20-117-59c-15-38-3-78,51-161c21-33,39-63,39-65c0-3-15-5-34-5c-107,0-284,257-419,610
		c-93,243-130,413-130,610c-1,196,23,281,162,595c32,72,68,162,80,200c13,39,24,76,27,83
		C2036.38,2177.99,2053.38,2153.99,2047.38,2126.99z M2096.38,2053.99c-1-32-95-233-128-274c-14-18-14-16,1,20
		c78,191,95,236,100,264C2078.38,2104.99,2099.38,2097.99,2096.38,2053.99z M1892.38,1574.99c-4-30-8-86-8-123c-1-67-14-113-44-152
		c-26-34-29-11-11,87c15,88,62,254,68,246C1899.38,1631.99,1897.38,1604.99,1892.38,1574.99z"/>
</g>
</svg>
